<svg xmlns="http://www.w3.org/2000/svg" width="100" height="100"><path fill="#c7ede6" d="M87.215 56.71A15.423 15.423 0 0089 49.5c0-6.621-4.159-12.257-10.001-14.478L79 35c0-11.598-9.402-21-21-21-9.784 0-17.981 6.701-20.313 15.757A14.982 14.982 0 0033 29c-7.692 0-14.023 5.793-14.89 13.252C12.906 43.353 9 47.969 9 53.5 9 59.851 14.149 65 20.5 65c.177 0 .352-.012.526-.022-.004.175-.026.346-.026.522C21 76.822 30.178 86 41.5 86c6.437 0 12.175-2.972 15.934-7.614A11.948 11.948 0 0066 82c4.65 0 8.674-2.65 10.666-6.518 1.052.335 2.171.518 3.334.518 6.075 0 11-4.925 11-11 0-3.311-1.47-6.273-3.785-8.29z"/><path fill="#fdfcef" d="M79.875 55.5H86a4.5 4.5 0 004.5-4.5c0-2.333-1.782-4.229-4.055-4.455.022-.181.055-.358.055-.545a4.5 4.5 0 00-4.5-4.5c-1.438 0-2.703.686-3.527 1.736-.14-2.636-2.302-4.736-4.973-4.736a5 5 0 00-5 5c0 .446.077.87.187 1.282A3.477 3.477 0 0066 43.5a3.489 3.489 0 00-3.455 3.055c-.181-.022-.358-.055-.545-.055a4.5 4.5 0 000 9h14.875v.5h3v-.5z"/><path fill="#472b29" d="M73.5 38a5.506 5.506 0 00-5.5 5.5v.047A3.933 3.933 0 0066 43a3.998 3.998 0 00-3.858 3.005A2.22 2.22 0 0062 46c-2.757 0-5 2.243-5 5s2.243 5 5 5h14.875a.5.5 0 000-1H62c-2.206 0-4-1.794-4-4s1.794-4 4-4c.117 0 .23.017.343.032l.141.019a.502.502 0 00.557-.433A2.996 2.996 0 0166 44c.885 0 1.723.401 2.301 1.1a.503.503 0 00.614.126.5.5 0 00.254-.573A4.45 4.45 0 0169 43.5c0-2.481 2.019-4.5 4.5-4.5 2.381 0 4.347 1.872 4.474 4.263a.5.5 0 00.893.282A3.97 3.97 0 0182 42c2.206 0 4 1.794 4 4 0 .117-.017.23-.032.343l-.019.141a.5.5 0 00.446.558A3.976 3.976 0 0190 51c0 2.206-1.794 4-4 4h-6.125a.5.5 0 000 1H86c2.757 0 5-2.243 5-5a4.966 4.966 0 00-4.003-4.877L87 46c0-2.757-2.243-5-5-5a4.932 4.932 0 00-3.183 1.164A5.486 5.486 0 0073.5 38z"/><path fill="#472b29" d="M72 45c-1.403 0-2.609.999-2.913 2.341A2.344 2.344 0 0067.875 47a2.377 2.377 0 00-2.353 2.068 2.628 2.628 0 00-.584-.068 2.94 2.94 0 00-2.918 2.732.25.25 0 00.231.268h.018a.25.25 0 00.249-.232 2.44 2.44 0 012.419-2.268c.229 0 .47.042.738.127.022.007.045.01.067.01a.26.26 0 00.258-.262c0-1.034.841-1.875 1.875-1.875.447 0 .885.168 1.231.473a.252.252 0 00.165.063.231.231 0 00.093-.019.247.247 0 00.155-.212C69.623 46.512 70.712 45.5 72 45.5c.208 0 .425.034.682.107a.25.25 0 00.137-.481A2.94 2.94 0 0072 45zm13.883 1.5a3.007 3.007 0 00-2.874 2.182.25.25 0 10.481.136A2.505 2.505 0 0185.883 47c.117 0 .23.014.342.029a.251.251 0 00.281-.214.249.249 0 00-.214-.281 3.063 3.063 0 00-.409-.034z"/><path fill="#fff" d="M15.405 51H5.5a.5.5 0 010-1h9.905a.5.5 0 010 1zm3.095 0h-1a.5.5 0 010-1h1a.5.5 0 010 1zm4.991 2H14.5a.5.5 0 010-1h8.991a.5.5 0 010 1zM12.5 53h-1a.5.5 0 010-1h1a.5.5 0 010 1zm-3 0h-2a.5.5 0 010-1h2a.5.5 0 010 1zm6 2h-2a.5.5 0 010-1h2a.5.5 0 010 1zm3-9h-1a.5.5 0 000 1h1a.5.5 0 000-1zm0 2h-5a.5.5 0 000 1h5a.5.5 0 000-1zm5 2h-3a.5.5 0 000 1h3a.5.5 0 000-1zm49-26h-10a.5.5 0 010-1h10a.5.5 0 010 1zm4 0h-2a.5.5 0 010-1h2a.5.5 0 010 1zm5 2h-10a.5.5 0 010-1h10a.5.5 0 010 1zm-12 0h-1a.5.5 0 010-1h1a.5.5 0 010 1zm-3.125 0H64.5a.5.5 0 010-1h1.875a.5.5 0 010 1zm9.125-4h-5a.5.5 0 010-1h5a.5.5 0 010 1zm-3 6h-2a.5.5 0 010-1h2a.5.5 0 010 1z"/><path fill="#fed5b3" d="M29 64V36a8 8 0 018-8h28a8 8 0 018 8v28a8 8 0 01-8 8H37a8 8 0 01-8-8z"/><path fill="#d68f53" d="M66.083 28.957H35.917a5.96 5.96 0 00-5.96 5.96v6.833h42.087v-6.833a5.961 5.961 0 00-5.961-5.96z"/><path fill="#472b29" d="M61.5 42h-31a.5.5 0 010-1h31a.5.5 0 010 1zm11 0h-6a.5.5 0 010-1h6a.5.5 0 010 1z"/><path fill="#fefdef" d="M51 39.478a10.522 10.522 0 100 21.044 10.522 10.522 0 100-21.044z"/><path fill="#472b29" d="M51 61.021c-6.077 0-11.021-4.944-11.021-11.021S44.923 38.979 51 38.979 62.021 43.923 62.021 50 57.077 61.021 51 61.021zm0-21.042c-5.525 0-10.021 4.496-10.021 10.021S45.475 60.021 51 60.021 61.021 55.525 61.021 50 56.525 39.979 51 39.979z"/><path fill="#f15b6c" d="M35 28.478h-.044c-1.076 0-1.956.88-1.956 1.956V41.87h2V28.478z"/><path fill="#8f9eb6" d="M51 43.304a6.696 6.696 0 100 13.392 6.696 6.696 0 100-13.392z"/><path fill="#77cbd2" d="M47.652 45.218a2.391 2.391 0 100 4.782 2.391 2.391 0 100-4.782z"/><path fill="#472b29" d="M47.652 50.5a2.895 2.895 0 01-2.892-2.892c0-1.594 1.297-2.891 2.892-2.891s2.892 1.297 2.892 2.891a2.895 2.895 0 01-2.892 2.892zm0-4.782c-1.043 0-1.892.848-1.892 1.891s.849 1.892 1.892 1.892 1.892-.849 1.892-1.892-.849-1.891-1.892-1.891z"/><path fill="#b77748" d="M61.5 32.5h6v6h-6z"/><path fill="#472b29" d="M68 39h-7v-7h7v7zm-6-1h5v-5h-5v5z"/><path fill="#f9e65c" d="M35 28.957h2v12.435h-2z"/><path fill="#a1d3a2" d="M37 28.957h2v12.435h-2z"/><path fill="#39c2d8" d="M39 28.957h2v12.435h-2z"/><path fill="#472b29" d="M65.348 29.4a6.26 6.26 0 016.252 6.252v28.696a6.259 6.259 0 01-6.252 6.252H36.652a6.26 6.26 0 01-6.252-6.252V35.652a6.259 6.259 0 016.252-6.252h28.696m0-1.4H36.652C32.443 28 29 31.443 29 35.652v28.696C29 68.557 32.443 72 36.652 72h28.696C69.557 72 73 68.557 73 64.348V35.652C73 31.443 69.557 28 65.348 28z"/><path fill="#b77748" d="M39.277 40.5h-5.304c-.733 0-1.326.671-1.326 1.5s.593 1.5 1.326 1.5h5.304c.733 0 1.326-.671 1.326-1.5s-.593-1.5-1.326-1.5z"/><path fill="#472b29" d="M39.277 44h-5.305c-1.007 0-1.826-.897-1.826-2s.819-2 1.826-2h5.305c1.007 0 1.826.897 1.826 2s-.819 2-1.826 2zm-5.304-3c-.455 0-.826.448-.826 1s.371 1 .826 1h5.305c.455 0 .826-.448.826-1s-.371-1-.826-1h-5.305zm22.579 13.243a.5.5 0 01-.414-.78A6.163 6.163 0 0057.196 50a.5.5 0 011 0 7.154 7.154 0 01-1.229 4.023.502.502 0 01-.415.22zM51 57.195c-3.968 0-7.195-3.228-7.195-7.195s3.228-7.195 7.195-7.195a7.222 7.222 0 016.24 3.609.5.5 0 11-.868.5 6.217 6.217 0 00-5.373-3.109c-3.416 0-6.195 2.779-6.195 6.195s2.779 6.195 6.195 6.195a.5.5 0 01.001 1z"/><path fill="#fdfcef" d="M36.5 73.5H40a3.5 3.5 0 003.5-3.5 3.489 3.489 0 00-3.055-3.455c.028-.179.055-.358.055-.545a3.5 3.5 0 00-3.5-3.5c-1.032 0-1.95.455-2.59 1.165a3.999 3.999 0 00-7.91.835c0 .191.03.374.056.558A2.473 2.473 0 0025 64.5a2.496 2.496 0 00-2.455 2.055A3.495 3.495 0 0022 66.5a3.5 3.5 0 100 7h7.5v.5h7v-.5z"/><path fill="#472b29" d="M38.25 69a.25.25 0 01-.25-.25 2.22 2.22 0 012.218-2.218c.034.009.737-.001 1.244.136a.25.25 0 01-.13.482c-.444-.12-1.1-.12-1.113-.118A1.72 1.72 0 0038.5 68.75a.25.25 0 01-.25.25zm-6.75 4a.5.5 0 100 1 .5.5 0 100-1z"/><path fill="#472b29" d="M40 74h-3.5a.5.5 0 010-1H40c1.654 0 3-1.346 3-3a2.996 2.996 0 00-2.618-2.959.502.502 0 01-.43-.573c.023-.154.048-.308.048-.468 0-1.654-1.346-3-3-3-.85 0-1.638.355-2.219 1a.498.498 0 01-.86-.231A3.514 3.514 0 0030.5 61c-1.93 0-3.5 1.57-3.5 3.5 0 .143.021.28.041.418.029.203-.063.438-.242.54-.179.102-.396.118-.556-.01A1.97 1.97 0 0025 65c-.966 0-1.792.691-1.963 1.644a.498.498 0 01-.569.405C22.314 67.025 22.16 67 22 67c-1.654 0-3 1.346-3 3s1.346 3 3 3h7.5a.5.5 0 010 1H22c-2.206 0-4-1.794-4-4a4.004 4.004 0 014.174-3.994A2.993 2.993 0 0125 64c.349 0 .689.061 1.011.18A4.506 4.506 0 0130.5 60a4.523 4.523 0 014.153 2.774A3.979 3.979 0 0137 62a4.004 4.004 0 013.996 4.142A3.999 3.999 0 0144 70c0 2.206-1.794 4-4 4z"/><path fill="#472b29" d="M34.5 73h-1a.5.5 0 000 1h1a.5.5 0 000-1z"/></svg>