<svg xmlns="http://www.w3.org/2000/svg" width="64" height="64"><path fill="#8d6c9f" d="M49.663 61.083a.916.916 0 01-.164-.014l-1.973-.327a1 1 0 01-.823-1.15.996.996 0 011.149-.823l1.973.327a1 1 0 01-.162 1.987zm.846-5.101a.916.916 0 01-.164-.014l-1.974-.327a1 1 0 01-.823-1.15.997.997 0 011.149-.823l1.974.327a1 1 0 01-.162 1.987zm.845-5.101a.935.935 0 01-.165-.014l-1.973-.327a1 1 0 01-.822-1.15.994.994 0 011.15-.823l1.973.327a1 1 0 01-.163 1.987zm.844-5.101a.916.916 0 01-.164-.014l-1.973-.327a1 1 0 01-.823-1.15.997.997 0 011.149-.823l1.973.327a1 1 0 01-.162 1.987zm.846-5.101a.916.916 0 01-.164-.014l-1.974-.327a1 1 0 11.326-1.973l1.974.327a1 1 0 01-.162 1.987z"/><path fill="#ffeb9b" d="M41 62a1 1 0 01-.991-.87l-2.771-21.166a1 1 0 011.359-1.06l-1.359-10.63a.998.998 0 01.991-1.127 1 1 0 01.708.293l.713.712-.669-9.903a44.94 44.94 0 01-.679-.061 18.155 18.155 0 00-1.788-.111c-1.137 0-3.23.191-4.395.596l-.116 18.167.948 2.843A1 1 0 0132 41h-8a1.002 1.002 0 01-.949-1.317L24 36.838V23.67l-.073.041c-1.592.88-3.358 1.856-4.927 2.179v7.948l.949 2.846A1 1 0 0119 38h-8a1.002 1.002 0 01-.949-1.317L11 33.838v-8c-1.801-.372-2.641-.919-3.595-1.54l-.431-.278c-.561-.354-2.266-1.433-2.777-4.148a1.044 1.044 0 01-.017-.185v-.13a1 1 0 01.659-.94c.389-.141.744-.283 1.084-.418.896-.357 1.744-.694 2.839-.892a1.002 1.002 0 011.175.911c.073.465-.08.866-.454 1.201-.208.187-.49.415-.785.653-.179.144-.363.292-.536.438.442.22 1.646.386 2.838.455V7.162l-.949-2.846A1 1 0 0111 3h8a1.002 1.002 0 01.949 1.317L19 7.162v13.754c1.049-.198 2.116-.798 4.729-2.313l.271-.156V6.162l-.949-2.846A1 1 0 0124 2h8a1.002 1.002 0 01.949 1.317L32 6.162v7.492c1.027-.22 3.601-.463 5.544-.463.368 0 .738.009 1.108.026l-.14-2.153A1.002 1.002 0 0139.51 10H46a1 1 0 011 1v1.577l.406-.158c.703-.275 1.429-.56 2.063-.748a2.345 2.345 0 012.648.97l.055.083c.818 1.245 3.311 5.034 4.605 6.632.153.189.232.428.222.671-.028.679-.054 1.476-.083 2.328-.096 2.889-.215 6.485-.5 8.304a64.358 64.358 0 01-.267 1.211.987.987 0 01-.268.483c-1.082 1.082-1.935 1.393-3.211 1.776-.839.28-2.838.677-3.617.813a1.73 1.73 0 01-1.527-.491 15.014 15.014 0 00-.738-.795l.229 6.793a1 1 0 01-1.73.717l-.503-.539.286 8.915a1.001 1.001 0 01-1.706.74l-.425-.424-.943 11.227a1 1 0 01-.974.916L41 62zm8.497-45.769a1.02 1.02 0 00-.219.024c-.493.11-1.024.236-1.513.353a.997.997 0 00-.765.973v10.358c0 .38.204.72.532.885.421.212 1.272.449 2.023.657l.152.042a1.004 1.004 0 001.228-.679c.487-1.582.797-3.685.797-4.438 0-2.566-.627-4.947-1.18-7.047l-.103-.391a.984.984 0 00-.952-.737z"/><path fill="#efc88e" d="M15 8v30h-5l1-4 1-9V8.859L10 3h5z"/><path fill="#f9dd8f" d="M10.5 3.5l4.5 4 4.5-4zm0 34l4.5-4 4.5 4z"/><path fill="#efc88e" d="M28 6v31l-5 4 1-8 1-9V7.859L23 2h5z"/><path fill="#f9dd8f" d="M23.5 2.5l4.5 4 4.5-4zm0 38l4.5-4 4.5 4z"/><path fill="#efc88e" d="M43.478 35.826L41.13 33.5l.783 11.913-1.565-1.826L41.023 62l-1.393-3.739-2.413-19.011 1.109-1.109-.978-10.565 2.119-.913.45-9.372-.193-2.994-.974-3.775L43 10z"/><path fill="#f9dd8f" d="M38.5 10.5l4.5 4 4.5-4z"/><path fill="#8d6c9f" d="M32 3l-1 3v8.948s1.688-1.096 4.948-1.096c1.086 0 2.346.122 3.776.446L39.51 11H46v3c1.091-.338 2.618-1.033 3.754-1.371a1.346 1.346 0 011.526.558c.786 1.195 3.363 5.123 4.72 6.798-.123 2.987-.214 8.24-.571 10.519a56.521 56.521 0 01-.253 1.143c-.89.89-1.519 1.143-2.792 1.526-.76.253-2.611.63-3.501.786a.739.739 0 01-.629-.195c-.78-.916-1.664-1.621-2.554-2.764l.319 9.483L43.7 38l.371 11.574-1.948-1.948L41 61l-2.771-21.166L40 42l-1.771-13.853 2.597 2.597-.909-13.453c-1.75-.577-3.117-.896-4.351-.896-1.528 0-2.852.489-4.445 1.585L31 37l1 3h-8l1-3V22c-2 1-5 3-7 3v9l1 3h-8l1-3v-9c-2.498-.378-3.224-1.024-4.491-1.825-.716-.453-1.929-1.359-2.329-3.488v-.13c1.396-.506 2.364-1.013 3.76-1.266 0 .123.086.196-.123.383-.368.33-.978.795-1.461 1.21a.845.845 0 00.07 1.342l.163.11C8.608 21.972 12 22 12 22V7l-1-3h8l-1 3v15c2 0 3-.663 7-2.977V6l-1-3h8m17.976 27.56c.859 0 1.649-.56 1.914-1.422.515-1.673.842-3.884.842-4.732 0-2.864-.746-5.517-1.315-7.691a1.985 1.985 0 00-2.357-1.436c-.499.111-1.035.238-1.529.357A1.998 1.998 0 0046 17.581V27.94c0 .749.413 1.441 1.081 1.777.541.273 1.501.531 2.358.77.18.05.36.073.537.073M32 1h-8c-.643 0-1.247.309-1.622.831s-.478 1.192-.275 1.802L23 6.325v11.546c-1.411.818-2.315 1.333-3 1.651V7.325l.897-2.692A2.001 2.001 0 0019 2h-8a2 2 0 00-1.897 2.632L10 7.325v9.27a2 2 0 00-1.417-.272c-1.192.216-2.125.587-3.027.946-.332.132-.678.27-1.058.408a2 2 0 00-1.318 1.88v.13c0 .124.012.248.034.37.591 3.143 2.574 4.397 3.225 4.809.146.092.284.182.419.27.82.534 1.66 1.081 3.141 1.489v7.051l-.897 2.692A2.001 2.001 0 0011 39h8c.643 0 1.247-.309 1.622-.831s.478-1.192.275-1.802L20 33.675v-7.013c.996-.307 2.014-.79 3-1.309v11.322l-.897 2.692A2.001 2.001 0 0024 42h8c.643 0 1.247-.309 1.622-.831s.478-1.192.275-1.802l-.895-2.686.112-17.592c.876-.487 1.629-.695 2.452-.695.666 0 1.433.125 2.448.405l.498 7.367a1.995 1.995 0 00-1.165.185 2 2 0 00-1.103 2.049l1.225 9.583-.034.014a2 2 0 00-1.19 2.096l2.771 21.166a2 2 0 001.982 1.74l.047-.001a2 2 0 001.947-1.832l.807-9.612a1.993 1.993 0 001.065-.147 2 2 0 001.204-1.899l-.226-7.034a2.002 2.002 0 002.173-2.059l-.155-4.601c.288.1.594.154.901.154.158 0 .317-.014.472-.042.817-.143 2.806-.538 3.749-.847 1.372-.414 2.369-.783 3.604-2.019a2 2 0 00.535-.967c.249-1.087.27-1.216.279-1.278.295-1.883.41-5.363.512-8.433.028-.847.054-1.639.082-2.314a2.001 2.001 0 00-.444-1.341c-1.268-1.565-3.742-5.328-4.555-6.564l-.048-.074a3.34 3.34 0 00-3.771-1.375 17.81 17.81 0 00-1.179.404V11a2 2 0 00-2-2h-6.49a2 2 0 00-1.996 2.129l.052.799a17.503 17.503 0 00-1.618-.077 14.75 14.75 0 00-2.948.286V6.325l.897-2.692A2.001 2.001 0 0032 1zm17.976 27.56l-.16-.044c-.634-.176-1.502-.417-1.835-.585L48 17.581c.482-.116 1.007-.24 1.497-.349l.091.386c.537 2.041 1.145 4.354 1.145 6.788 0 .598-.286 2.626-.753 4.144l-.004.01z"/></svg>