<svg width="80" height="90" viewBox="0 0 80 90" fill="none" xmlns="http://www.w3.org/2000/svg">
<path d="M0.559532 43.6147L42.4607 0.571369C42.8186 0.204521 43.3037 -0.000913635 43.8092 3.48412e-06H78.0919C79.1438 -0.00201418 79.998 0.87255 80 1.9531C80.0009 2.47402 79.7995 2.97385 79.4404 3.3418L38.8839 45.0001L79.4404 86.6582C80.1852 87.4212 80.1866 88.6601 79.4438 89.4252C79.0856 89.794 78.599 90.0009 78.0919 90H43.8092C43.3037 90.0009 42.8186 89.7955 42.4607 89.4286L0.559532 46.3851C-0.185225 45.6221 -0.186656 44.3832 0.556137 43.6182C0.557387 43.6171 0.558461 43.616 0.559532 43.6147Z" fill="#B78D84"/>
</svg>
