<svg width="80" height="90" viewBox="0 0 80 90" fill="none" xmlns="http://www.w3.org/2000/svg">
<path d="M79.4405 43.6147L37.5393 0.571369C37.1814 0.204521 36.6963 -0.000913635 36.1908 3.48412e-06H1.90805C0.856179 -0.00201418 0.00196707 0.87255 2.9554e-06 1.9531C-0.000889825 2.47402 0.200522 2.97385 0.559598 3.3418L41.1161 45.0001L0.559598 86.6582C-0.18516 87.4212 -0.186588 88.6601 0.556205 89.4252C0.914389 89.794 1.40095 90.0009 1.90805 90H36.1908C36.6963 90.0009 37.1814 89.7955 37.5393 89.4286L79.4405 46.3851C80.1852 45.6221 80.1867 44.3832 79.4439 43.6182C79.4426 43.6171 79.4415 43.616 79.4405 43.6147Z" fill="#B78D84"/>
</svg>
